<svg width="230" height="230" viewBox="0 0 230 230" fill="none" xmlns="http://www.w3.org/2000/svg">
<g id="Planet" clip-path="url(#clip0_538_32)">
<g id="Clip path group">
<mask id="mask0_538_32" style="mask-type:luminance" maskUnits="userSpaceOnUse" x="0" y="0" width="230" height="230">
<g id="__lottie_element_848">
<path id="Vector" d="M230 0H0V230H230V0Z" fill="white"/>
</g>
</mask>
<g mask="url(#mask0_538_32)">
<g id="Group">
<g id="Group_2">
<g id="Group_3">
<path id="Vector_2" d="M72.1757 50.6221L74.7688 55.8504L80.5464 56.6777L76.3758 60.7601L77.3747 66.5088L72.203 63.8037L67.0441 66.5302L68.0177 60.7774L63.8302 56.7123L69.6043 55.8611L72.1757 50.6221Z" fill="#C27BFB"/>
</g>
</g>
<g id="Group_4">
<g id="Group_5">
<path id="Vector_3" d="M45.881 141.126L50.5273 150.492L60.8767 151.974L53.4059 159.287L55.1938 169.587L45.9298 164.742L36.6875 169.626L38.4327 159.318L30.9318 152.036L41.2749 150.511L45.881 141.126Z" fill="#972BF6"/>
</g>
</g>
<g id="Group_6">
<g id="Group_7">
<path id="Vector_4" d="M65.072 101.92C72.674 74.4567 101.099 58.3574 128.562 65.9594C156.026 73.5614 172.125 101.985 164.523 129.448C156.921 156.911 128.496 173.012 101.033 165.41C73.5693 157.808 57.47 129.383 65.072 101.92Z" fill="#E4BDFE"/>
</g>
<g id="Group_8" style="mix-blend-mode:multiply">
<path id="Vector_5" d="M101.033 165.41C119.27 170.458 137.922 165.045 150.629 152.803C142.012 155.132 132.679 155.266 123.453 152.712C95.9896 145.11 79.8888 116.685 87.4908 89.2217C90.0445 79.9954 94.9585 72.0593 101.386 65.8662C84.3527 70.4687 70.1202 83.6845 65.072 101.92C57.4701 129.383 73.5693 157.808 101.033 165.41Z" fill="#C27BFB" fill-opacity="0.67"/>
</g>
<g id="Group_9" style="mix-blend-mode:overlay">
<path id="Vector_6" d="M128.562 65.9594C125.991 65.2481 123.408 64.7426 120.837 64.4367C119.502 69.2645 118.779 74.3457 118.789 79.5982C118.845 106.456 137.695 128.867 162.862 134.454C163.494 132.832 164.049 131.162 164.523 129.448C172.125 101.985 156.025 73.5614 128.562 65.9594Z" fill="white" fill-opacity="0.52"/>
</g>
<g id="Group_10">
<path id="Vector_7" d="M63.3709 111.545C43.3381 103.788 30.8728 96.7587 31.9117 93.0081C33.6387 86.7681 72.072 91.9616 117.757 104.607C163.442 117.253 199.076 132.561 197.349 138.801C196.315 142.54 182.098 142.175 161.042 138.56" stroke="#972BF6" stroke-width="3.14333" stroke-miterlimit="10"/>
</g>
</g>
<g id="Group_11">
<g id="Group_12">
<path id="Vector_8" d="M136.27 172.064L139.597 178.771L147.008 179.832L141.658 185.069L142.939 192.447L136.305 188.976L129.685 192.475L130.936 185.091L125.564 179.877L132.971 178.785L136.27 172.064Z" fill="#C27BFB"/>
</g>
</g>
<g id="Group_13">
<g id="Group_14">
<path id="Vector_9" d="M165.729 36.7259L170.375 46.0897L180.723 47.5724L173.252 54.8851L175.042 65.1853L165.778 60.3401L156.534 65.2236L158.281 54.9161L150.778 47.6343L161.121 46.1088L165.729 36.7259Z" fill="#972BF6"/>
</g>
</g>
</g>
</g>
</g>
</g>
<defs>
<clipPath id="clip0_538_32">
<rect width="230" height="230" fill="white"/>
</clipPath>
</defs>
</svg>
